<?xml version="1.0" encoding="utf-8"?>
<!-- Generator: Adobe Illustrator 23.0.5, SVG Export Plug-In . SVG Version: 6.00 Build 0)  -->
<svg version="1.1" id="Layer_1" xmlns="http://www.w3.org/2000/svg" xmlns:xlink="http://www.w3.org/1999/xlink" x="0px" y="0px"
	 viewBox="0 0 372.1 108.1" style="enable-background:new 0 0 372.1 108.1;" xml:space="preserve">
<style type="text/css">
	.st0{fill:#FFFFFF;}
	.st1{fill-rule:evenodd;clip-rule:evenodd;fill:#FFFFFF;}
	.st2{fill-rule:evenodd;clip-rule:evenodd;fill:#F1CF00;}
	.st3{fill-rule:evenodd;clip-rule:evenodd;fill:#AA0F16;}
	.st4{fill-rule:evenodd;clip-rule:evenodd;fill:#8FB435;}
</style>
<g>
	<path class="st0" d="M207.7,2.4h-16.8v23.5h-23.3v74.8h0.6V85.8h7.1v20.6h31.8c25.4,0,43.7-10.3,52.7-26.3L241,42.5
		c-0.1-0.3,0-0.5,0.2-0.7c0.1,0,0.1-0.1,0.2-0.1h16.8c0.2,0,0.4,0.1,0.5,0.3l7.5,15c0.1-1,0.1-2,0.1-3v-0.3
		C266.4,23.8,244.8,2.4,207.7,2.4z M236.8,54.6c0,16.8-11.4,26.3-28.7,26.3h-11.7V28h11.7c17.2,0,28.7,9.7,28.7,26.3V54.6z"/>
	<path class="st0" d="M167.6,70.6L138.5,1.7h-27.8L66.5,106.4h30.3l7.4-18.6h40.1l7.6,18.6h1.4v-5.7h14.9V85.8h5.8L167.6,70.6z
		 M112.7,65.4l11.7-29.5L136,65.4H112.7z M175.3,88.8v17.6h7.4L175.3,88.8z"/>
	<polygon class="st0" points="24.7,106.4 85.3,106.4 85.3,81.9 29.5,81.9 29.5,65.4 79.4,65.4 79.4,42.7 29.5,42.7 29.5,26.9 
		84.6,26.9 84.6,2.4 1,2.4 1,82.6 24.7,82.6 	"/>
	<polygon class="st1" points="324.8,72.7 310.1,43.3 278.6,106.4 295.4,106.4 310.1,76.9 316.4,89.6 324.8,106.4 339.6,76.9 
		354.3,106.4 371.1,106.4 339.6,43.3 	"/>
	<rect x="153.3" y="85.8" class="st1" width="14.9" height="14.9"/>
	<rect x="153.3" y="85.8" class="st2" width="14.9" height="14.9"/>
	<rect x="8" y="82.6" class="st3" width="16.7" height="16.7"/>
	<rect x="174.2" y="9.2" class="st4" width="16.7" height="16.7"/>
	<polygon class="st3" points="304.7,42.7 273.2,105.8 241.6,42.7 258.5,42.7 273.2,72.2 287.9,42.7 	"/>
</g>
</svg>
